<svg xmlns="http://www.w3.org/2000/svg" xmlns:xlink="http://www.w3.org/1999/xlink" width="72" height="63" version="1.1" style=""><rect id="backgroundrect" width="100%" height="100%" x="0" y="0" fill="none" stroke="none" style="" class=""/>
    <!-- Generator: Sketch 56.2 (81672) - https://sketch.com -->
    <title>Logomark / Guilded-Wordmark-White</title>
    <desc>Created with Sketch.</desc>
    
<g class="currentLayer" style=""><title>Layer 1</title><g id="Logomark-/-Guilded-Wordmark-White" stroke="none" stroke-width="1" fill="none" fill-rule="evenodd" class="selected">
        <path d="M15.890328799999999,14.264150899999997 C15.890328799999999,14.264150899999997 15.950328599999999,22.803622599999997 20.3351089,31.635509400000004 C24.839888799999997,40.13694340000001 31.051060900000003,45.597735799999995 36.175038,47.7730189 C41.4694143,45.2981887 46.583791399999996,41.002301900000006 49.3749789,36.3735849 L34.840644,36.3735849 C31.0798608,33.2568679 28.120674100000002,28.0861132 27.4414771,22.109434 L70.079686,22.109434 C67.9772956,31.718716999999998 63.51571559999999,40.4578868 59.2653346,46.023283000000006 C53.36587539999999,53.739919 45.366483099999996,59.6292832 36.206237900000005,63 L36.0718385,63 C20.779106900000002,56.9068302 12.551943800000004,47.309433999999996 7.123168100000001,36.480565999999996 C3.6407837,29.541056599999997 0,16.941056600000003 0,0 L72,0 C72.011637,4.770941399999998 71.690875,9.537002899999997 71.039682,14.264150899999997 L15.890328799999999,14.264150899999997 z" id="Path" fill="#FFFFFF" fill-rule="nonzero"/>
    </g></g></svg>